<mxfile host="Electron" agent="Mozilla/5.0 (Windows NT 10.0; Win64; x64) AppleWebKit/537.36 (KHTML, like Gecko) draw.io/24.7.8 Chrome/128.0.6613.36 Electron/32.0.1 Safari/537.36" version="24.7.8">
  <diagram id="C5RBs43oDa-KdzZeNtuy" name="Page-1">
    <mxGraphModel dx="1434" dy="844" grid="1" gridSize="10" guides="1" tooltips="1" connect="1" arrows="1" fold="1" page="1" pageScale="1" pageWidth="827" pageHeight="1169" math="0" shadow="0">
      <root>
        <mxCell id="WIyWlLk6GJQsqaUBKTNV-0" />
        <mxCell id="WIyWlLk6GJQsqaUBKTNV-1" parent="WIyWlLk6GJQsqaUBKTNV-0" />
        <mxCell id="fkUUlGlds7syn6yrqy0x-56" value="" style="edgeStyle=orthogonalEdgeStyle;rounded=0;orthogonalLoop=1;jettySize=auto;html=1;" parent="WIyWlLk6GJQsqaUBKTNV-1" source="fkUUlGlds7syn6yrqy0x-57" target="fkUUlGlds7syn6yrqy0x-60" edge="1">
          <mxGeometry relative="1" as="geometry" />
        </mxCell>
        <mxCell id="fkUUlGlds7syn6yrqy0x-57" value="Objekt" style="swimlane;fontStyle=0;childLayout=stackLayout;horizontal=1;startSize=26;fillColor=#dae8fc;horizontalStack=0;resizeParent=1;resizeParentMax=0;resizeLast=0;collapsible=1;marginBottom=0;whiteSpace=wrap;html=1;strokeColor=#6c8ebf;" parent="WIyWlLk6GJQsqaUBKTNV-1" vertex="1">
          <mxGeometry x="100" y="60" width="140" height="92" as="geometry" />
        </mxCell>
        <mxCell id="fkUUlGlds7syn6yrqy0x-58" style="edgeStyle=orthogonalEdgeStyle;rounded=0;orthogonalLoop=1;jettySize=auto;html=1;exitX=0.5;exitY=0;exitDx=0;exitDy=0;entryX=0.5;entryY=1;entryDx=0;entryDy=0;" parent="WIyWlLk6GJQsqaUBKTNV-1" source="fkUUlGlds7syn6yrqy0x-59" target="fkUUlGlds7syn6yrqy0x-57" edge="1">
          <mxGeometry relative="1" as="geometry">
            <mxPoint x="170" y="168" as="targetPoint" />
          </mxGeometry>
        </mxCell>
        <mxCell id="fkUUlGlds7syn6yrqy0x-59" value="Cleint" style="swimlane;fontStyle=0;childLayout=stackLayout;horizontal=1;startSize=26;fillColor=#dae8fc;horizontalStack=0;resizeParent=1;resizeParentMax=0;resizeLast=0;collapsible=1;marginBottom=0;whiteSpace=wrap;html=1;strokeColor=#6c8ebf;" parent="WIyWlLk6GJQsqaUBKTNV-1" vertex="1">
          <mxGeometry x="100" y="585" width="140" height="92" as="geometry" />
        </mxCell>
        <mxCell id="fkUUlGlds7syn6yrqy0x-60" value="&lt;div&gt;&amp;lt;&amp;lt;interface&amp;gt;&amp;gt;&lt;/div&gt;Element&amp;nbsp;" style="swimlane;fontStyle=0;childLayout=stackLayout;horizontal=1;startSize=26;fillColor=#fff2cc;horizontalStack=0;resizeParent=1;resizeParentMax=0;resizeLast=0;collapsible=1;marginBottom=0;whiteSpace=wrap;html=1;strokeColor=#d6b656;" parent="WIyWlLk6GJQsqaUBKTNV-1" vertex="1">
          <mxGeometry x="450" y="78" width="140" height="56" as="geometry" />
        </mxCell>
        <mxCell id="fkUUlGlds7syn6yrqy0x-61" value="accept()" style="text;html=1;align=center;verticalAlign=middle;resizable=0;points=[];autosize=1;strokeColor=none;fillColor=none;" parent="fkUUlGlds7syn6yrqy0x-60" vertex="1">
          <mxGeometry y="26" width="140" height="30" as="geometry" />
        </mxCell>
        <mxCell id="fkUUlGlds7syn6yrqy0x-68" value="ElementA&amp;nbsp;" style="swimlane;fontStyle=0;childLayout=stackLayout;horizontal=1;startSize=26;fillColor=#d5e8d4;horizontalStack=0;resizeParent=1;resizeParentMax=0;resizeLast=0;collapsible=1;marginBottom=0;whiteSpace=wrap;html=1;strokeColor=#82b366;" parent="WIyWlLk6GJQsqaUBKTNV-1" vertex="1">
          <mxGeometry x="290" y="240" width="140" height="56" as="geometry" />
        </mxCell>
        <mxCell id="fkUUlGlds7syn6yrqy0x-69" value="+accept(v : Visitor)" style="text;html=1;align=center;verticalAlign=middle;resizable=0;points=[];autosize=1;strokeColor=none;fillColor=none;" parent="fkUUlGlds7syn6yrqy0x-68" vertex="1">
          <mxGeometry y="26" width="140" height="30" as="geometry" />
        </mxCell>
        <mxCell id="fkUUlGlds7syn6yrqy0x-70" value="ElementB&amp;nbsp;" style="swimlane;fontStyle=0;childLayout=stackLayout;horizontal=1;startSize=26;fillColor=#d5e8d4;horizontalStack=0;resizeParent=1;resizeParentMax=0;resizeLast=0;collapsible=1;marginBottom=0;whiteSpace=wrap;html=1;strokeColor=#82b366;" parent="WIyWlLk6GJQsqaUBKTNV-1" vertex="1">
          <mxGeometry x="680" y="240" width="140" height="56" as="geometry" />
        </mxCell>
        <mxCell id="fkUUlGlds7syn6yrqy0x-71" value="+accept(v: Visitor)" style="text;html=1;align=center;verticalAlign=middle;resizable=0;points=[];autosize=1;strokeColor=none;fillColor=none;" parent="fkUUlGlds7syn6yrqy0x-70" vertex="1">
          <mxGeometry y="26" width="140" height="30" as="geometry" />
        </mxCell>
        <mxCell id="fkUUlGlds7syn6yrqy0x-72" value="" style="endArrow=block;endSize=16;endFill=0;html=1;rounded=0;exitX=0.5;exitY=0;exitDx=0;exitDy=0;entryX=0.571;entryY=1.033;entryDx=0;entryDy=0;entryPerimeter=0;" parent="WIyWlLk6GJQsqaUBKTNV-1" source="fkUUlGlds7syn6yrqy0x-70" target="fkUUlGlds7syn6yrqy0x-61" edge="1">
          <mxGeometry width="160" relative="1" as="geometry">
            <mxPoint x="720" y="300" as="sourcePoint" />
            <mxPoint x="560" y="430" as="targetPoint" />
            <Array as="points">
              <mxPoint x="750" y="180" />
              <mxPoint x="530" y="180" />
            </Array>
          </mxGeometry>
        </mxCell>
        <mxCell id="fkUUlGlds7syn6yrqy0x-73" value="" style="endArrow=none;html=1;rounded=0;exitX=0.5;exitY=0;exitDx=0;exitDy=0;" parent="WIyWlLk6GJQsqaUBKTNV-1" source="fkUUlGlds7syn6yrqy0x-68" edge="1">
          <mxGeometry width="50" height="50" relative="1" as="geometry">
            <mxPoint x="510" y="470" as="sourcePoint" />
            <mxPoint x="530" y="180" as="targetPoint" />
            <Array as="points">
              <mxPoint x="360" y="180" />
            </Array>
          </mxGeometry>
        </mxCell>
        <mxCell id="fkUUlGlds7syn6yrqy0x-74" value="Visitor" style="swimlane;fontStyle=0;childLayout=stackLayout;horizontal=1;startSize=26;fillColor=#fff2cc;horizontalStack=0;resizeParent=1;resizeParentMax=0;resizeLast=0;collapsible=1;marginBottom=0;whiteSpace=wrap;html=1;strokeColor=#d6b656;" parent="WIyWlLk6GJQsqaUBKTNV-1" vertex="1">
          <mxGeometry x="490" y="620" width="150" height="66" as="geometry" />
        </mxCell>
        <mxCell id="fkUUlGlds7syn6yrqy0x-75" value="+visitor(a: ElementA)&lt;div&gt;+visitor(b: ElementB)&lt;/div&gt;" style="text;html=1;align=center;verticalAlign=middle;resizable=0;points=[];autosize=1;strokeColor=none;fillColor=none;" parent="fkUUlGlds7syn6yrqy0x-74" vertex="1">
          <mxGeometry y="26" width="150" height="40" as="geometry" />
        </mxCell>
        <mxCell id="fkUUlGlds7syn6yrqy0x-76" value="VisitorA" style="swimlane;fontStyle=0;childLayout=stackLayout;horizontal=1;startSize=26;fillColor=#d5e8d4;horizontalStack=0;resizeParent=1;resizeParentMax=0;resizeLast=0;collapsible=1;marginBottom=0;whiteSpace=wrap;html=1;strokeColor=#82b366;" parent="WIyWlLk6GJQsqaUBKTNV-1" vertex="1">
          <mxGeometry x="310" y="430" width="140" height="66" as="geometry" />
        </mxCell>
        <mxCell id="fkUUlGlds7syn6yrqy0x-77" value="+visitor(a: ElementA)&lt;div&gt;+visitor(b: ElementB)&lt;/div&gt;" style="text;html=1;align=center;verticalAlign=middle;resizable=0;points=[];autosize=1;strokeColor=none;fillColor=none;" parent="fkUUlGlds7syn6yrqy0x-76" vertex="1">
          <mxGeometry y="26" width="140" height="40" as="geometry" />
        </mxCell>
        <mxCell id="fkUUlGlds7syn6yrqy0x-78" value="VisitorB" style="swimlane;fontStyle=0;childLayout=stackLayout;horizontal=1;startSize=26;fillColor=#d5e8d4;horizontalStack=0;resizeParent=1;resizeParentMax=0;resizeLast=0;collapsible=1;marginBottom=0;whiteSpace=wrap;html=1;strokeColor=#82b366;" parent="WIyWlLk6GJQsqaUBKTNV-1" vertex="1">
          <mxGeometry x="630" y="430" width="140" height="66" as="geometry" />
        </mxCell>
        <mxCell id="fkUUlGlds7syn6yrqy0x-79" value="+visitor(a: ElementA)&lt;div&gt;+visitor(b: ElementB)&lt;/div&gt;" style="text;html=1;align=center;verticalAlign=middle;resizable=0;points=[];autosize=1;strokeColor=none;fillColor=none;" parent="fkUUlGlds7syn6yrqy0x-78" vertex="1">
          <mxGeometry y="26" width="140" height="40" as="geometry" />
        </mxCell>
        <mxCell id="fkUUlGlds7syn6yrqy0x-80" value="" style="endArrow=block;endSize=16;endFill=0;html=1;rounded=0;exitX=0.543;exitY=1.025;exitDx=0;exitDy=0;exitPerimeter=0;" parent="WIyWlLk6GJQsqaUBKTNV-1" source="fkUUlGlds7syn6yrqy0x-79" edge="1">
          <mxGeometry width="160" relative="1" as="geometry">
            <mxPoint x="710.98" y="498.68000000000006" as="sourcePoint" />
            <mxPoint x="560" y="620" as="targetPoint" />
            <Array as="points">
              <mxPoint x="706" y="530" />
              <mxPoint x="560" y="530" />
            </Array>
          </mxGeometry>
        </mxCell>
        <mxCell id="fkUUlGlds7syn6yrqy0x-81" value="" style="endArrow=none;html=1;rounded=0;exitX=0.493;exitY=1.05;exitDx=0;exitDy=0;exitPerimeter=0;" parent="WIyWlLk6GJQsqaUBKTNV-1" source="fkUUlGlds7syn6yrqy0x-77" edge="1">
          <mxGeometry width="50" height="50" relative="1" as="geometry">
            <mxPoint x="510" y="660" as="sourcePoint" />
            <mxPoint x="560" y="530" as="targetPoint" />
            <Array as="points">
              <mxPoint x="380" y="530" />
            </Array>
          </mxGeometry>
        </mxCell>
        <mxCell id="fkUUlGlds7syn6yrqy0x-83" value="v.visitor(this)" style="shape=note;whiteSpace=wrap;html=1;backgroundOutline=1;darkOpacity=0.05;" parent="WIyWlLk6GJQsqaUBKTNV-1" vertex="1">
          <mxGeometry x="480" y="260" width="140" height="60" as="geometry" />
        </mxCell>
        <mxCell id="fkUUlGlds7syn6yrqy0x-85" value="" style="endArrow=none;dashed=1;html=1;dashPattern=1 3;strokeWidth=2;rounded=0;entryX=-0.029;entryY=0.283;entryDx=0;entryDy=0;entryPerimeter=0;exitX=1.029;exitY=0.367;exitDx=0;exitDy=0;exitPerimeter=0;" parent="WIyWlLk6GJQsqaUBKTNV-1" source="fkUUlGlds7syn6yrqy0x-69" target="fkUUlGlds7syn6yrqy0x-83" edge="1">
          <mxGeometry width="50" height="50" relative="1" as="geometry">
            <mxPoint x="370" y="380" as="sourcePoint" />
            <mxPoint x="420" y="330" as="targetPoint" />
          </mxGeometry>
        </mxCell>
        <mxCell id="fkUUlGlds7syn6yrqy0x-88" value="&lt;font style=&quot;font-size: 14px;&quot;&gt;Client: Die Client-Klasse nutzt die Klassen des Visitor&amp;nbsp;&lt;/font&gt;&lt;span style=&quot;background-color: initial; font-size: 14px;&quot;&gt;&amp;nbsp;und weist sie an, einen Visitor zur Verarbeitung zu akzeptieren.&lt;/span&gt;&lt;div&gt;&lt;div&gt;&lt;div&gt;&lt;font style=&quot;font-size: 14px;&quot;&gt;&lt;br&gt;&lt;/font&gt;&lt;/div&gt;&lt;div&gt;&lt;font style=&quot;font-size: 14px;&quot;&gt;&lt;br&gt;Visitor: Ein Interface oder eine abstrakte Klasse, die Besuchsoperationen für alle besuchbaren Klassen festlegt.&lt;/font&gt;&lt;/div&gt;&lt;div&gt;&lt;span style=&quot;font-size: 14px; background-color: initial;&quot;&gt;&lt;br&gt;&lt;/span&gt;&lt;/div&gt;&lt;div&gt;&lt;span style=&quot;font-size: 14px; background-color: initial;&quot;&gt;Visitor A und B: Jeder spezifische Visitor implementiert die Besuchsmethoden für verschiedene Operationen.&lt;/span&gt;&lt;br&gt;&lt;/div&gt;&lt;div&gt;&lt;font style=&quot;font-size: 14px;&quot;&gt;&lt;br&gt;&lt;/font&gt;&lt;/div&gt;&lt;div&gt;&lt;font style=&quot;font-size: 14px;&quot;&gt;&lt;br&gt;&lt;/font&gt;&lt;/div&gt;&lt;div&gt;&lt;font style=&quot;font-size: 14px;&quot;&gt;&lt;br&gt;&lt;br&gt;&lt;/font&gt;&lt;/div&gt;&lt;/div&gt;&lt;/div&gt;" style="shape=callout;whiteSpace=wrap;html=1;perimeter=calloutPerimeter;align=left;" parent="WIyWlLk6GJQsqaUBKTNV-1" vertex="1">
          <mxGeometry x="30" y="720" width="580" height="340" as="geometry" />
        </mxCell>
        <mxCell id="fkUUlGlds7syn6yrqy0x-89" style="edgeStyle=orthogonalEdgeStyle;rounded=0;orthogonalLoop=1;jettySize=auto;html=1;exitX=1;exitY=0.5;exitDx=0;exitDy=0;entryX=0.007;entryY=0.167;entryDx=0;entryDy=0;entryPerimeter=0;" parent="WIyWlLk6GJQsqaUBKTNV-1" source="fkUUlGlds7syn6yrqy0x-59" target="fkUUlGlds7syn6yrqy0x-74" edge="1">
          <mxGeometry relative="1" as="geometry" />
        </mxCell>
        <mxCell id="vNKnyPaM5jl3st1Xqc5s-0" value="&lt;font color=&quot;#ff0000&quot;&gt;&lt;strong&gt;Das Element-Interface&lt;/strong&gt; erlaubt es, dass jedes Element einen Besucher akzeptiert. Jedes Element hat seine eigene &lt;code&gt;accept()&lt;/code&gt; Methode.&lt;/font&gt;" style="shape=callout;whiteSpace=wrap;html=1;perimeter=calloutPerimeter;" parent="WIyWlLk6GJQsqaUBKTNV-1" vertex="1">
          <mxGeometry x="827" y="50" width="230" height="150" as="geometry" />
        </mxCell>
        <mxCell id="vNKnyPaM5jl3st1Xqc5s-1" value="&lt;font color=&quot;#ff0000&quot;&gt;Ein Besucher führt bestimmte Aktionen auf Elementen aus. &lt;strong style=&quot;&quot;&gt;VisitorA&lt;/strong&gt; und &lt;strong style=&quot;&quot;&gt;VisitorB&lt;/strong&gt; können verschiedene Aufgaben auf &lt;strong style=&quot;&quot;&gt;ElementA&lt;/strong&gt; und &lt;strong style=&quot;&quot;&gt;ElementB&lt;/strong&gt; erledigen.&lt;/font&gt;" style="shape=callout;whiteSpace=wrap;html=1;perimeter=calloutPerimeter;strokeColor=#e40707;" parent="WIyWlLk6GJQsqaUBKTNV-1" vertex="1">
          <mxGeometry x="827" y="510" width="230" height="140" as="geometry" />
        </mxCell>
        <mxCell id="vNKnyPaM5jl3st1Xqc5s-2" value="&lt;font color=&quot;#ff3333&quot;&gt;Neue Besucher können leicht hinzugefügt werden, ohne die Elementklassen zu verändern. Dies macht das Muster sehr flexibel.&lt;/font&gt;" style="shape=callout;whiteSpace=wrap;html=1;perimeter=calloutPerimeter;" parent="WIyWlLk6GJQsqaUBKTNV-1" vertex="1">
          <mxGeometry x="827" y="260" width="230" height="150" as="geometry" />
        </mxCell>
      </root>
    </mxGraphModel>
  </diagram>
</mxfile>
